<svg width="33" height="43" viewBox="0 0 33 43" fill="none" xmlns="http://www.w3.org/2000/svg">
<path d="M31.5 0H1.5C0.670312 0 0 0.686272 0 1.53571V41.4643C0 42.3137 0.670312 43 1.5 43H31.5C32.3297 43 33 42.3137 33 41.4643V1.53571C33 0.686272 32.3297 0 31.5 0ZM19.3125 3.45536H23.8125V13.5287L21.6328 11.9018L19.3125 13.6007V3.45536ZM29.625 39.5446H3.375V3.45536H16.5V17.7039C16.5 17.8623 16.5469 18.0206 16.6406 18.1502C16.6975 18.2326 16.7698 18.3026 16.8533 18.3561C16.9368 18.4097 17.0299 18.4458 17.1271 18.4623C17.2243 18.4788 17.3237 18.4754 17.4197 18.4524C17.5156 18.4293 17.6061 18.3869 17.6859 18.3278L21.6141 15.4531L25.4297 18.3038C25.5563 18.3998 25.7109 18.4526 25.8703 18.4526C26.2828 18.4526 26.6203 18.107 26.6203 17.6847V3.45536H29.6203V39.5446H29.625Z" fill="#9081EB"/>
</svg>
