<svg width="18" height="19" viewBox="0 0 18 19" fill="none" xmlns="http://www.w3.org/2000/svg">
<path d="M2 18.8299H16C17.103 18.8299 18 18.0087 18 16.999V6.92871C18 6.68591 17.8946 6.45305 17.7071 6.28136C17.5196 6.10968 17.2652 6.01323 17 6.01323H14V5.09775C14 2.57377 11.757 0.520355 9 0.520355C6.243 0.520355 4 2.57377 4 5.09775V6.01323H1C0.734784 6.01323 0.48043 6.10968 0.292893 6.28136C0.105357 6.45305 0 6.68591 0 6.92871V16.999C0 18.0087 0.897 18.8299 2 18.8299ZM6 5.09775C6 3.58355 7.346 2.35131 9 2.35131C10.654 2.35131 12 3.58355 12 5.09775V6.01323H6V5.09775ZM2 7.84418H4V9.67514H6V7.84418H12V9.67514H14V7.84418H16L16.002 16.999H2V7.84418Z" fill="black"/>
</svg>
