<svg width="18" height="17" viewBox="0 0 18 17" fill="none" xmlns="http://www.w3.org/2000/svg">
<path d="M8.99998 0C6.77216 0 4.63558 0.884998 3.06028 2.4603C1.48497 4.03561 0.599976 6.17218 0.599976 8.4C0.599976 10.6278 1.48497 12.7644 3.06028 14.3397C4.63558 15.915 6.77216 16.8 8.99998 16.8C11.2278 16.8 13.3644 15.915 14.9397 14.3397C16.515 12.7644 17.4 10.6278 17.4 8.4C17.4 6.17218 16.515 4.03561 14.9397 2.4603C13.3644 0.884998 11.2278 0 8.99998 0V0ZM13.789 11.461L12.06 13.19L8.99998 10.129L5.93898 13.189L4.20998 11.46L7.27198 8.4L4.21098 5.339L5.93998 3.611L8.99998 6.671L12.061 3.61L13.79 5.339L10.728 8.4L13.789 11.461Z" fill="#D61717"/>
</svg>
