<svg width="18" height="11" viewBox="0 0 18 11" fill="none" xmlns="http://www.w3.org/2000/svg">
<path d="M0 9.75C0 9.55109 0.0757254 9.36032 0.210517 9.21967C0.345309 9.07902 0.528126 9 0.71875 9H5.03125C5.22187 9 5.40469 9.07902 5.53948 9.21967C5.67427 9.36032 5.75 9.55109 5.75 9.75C5.75 9.94891 5.67427 10.1397 5.53948 10.2803C5.40469 10.421 5.22187 10.5 5.03125 10.5H0.71875C0.528126 10.5 0.345309 10.421 0.210517 10.2803C0.0757254 10.1397 0 9.94891 0 9.75ZM0 5.25C0 5.05109 0.0757254 4.86032 0.210517 4.71967C0.345309 4.57902 0.528126 4.5 0.71875 4.5H10.7812C10.9719 4.5 11.1547 4.57902 11.2895 4.71967C11.4243 4.86032 11.5 5.05109 11.5 5.25C11.5 5.44891 11.4243 5.63968 11.2895 5.78033C11.1547 5.92098 10.9719 6 10.7812 6H0.71875C0.528126 6 0.345309 5.92098 0.210517 5.78033C0.0757254 5.63968 0 5.44891 0 5.25ZM0 0.75C0 0.551088 0.0757254 0.360322 0.210517 0.21967C0.345309 0.0790178 0.528126 0 0.71875 0H16.5312C16.7219 0 16.9047 0.0790178 17.0395 0.21967C17.1743 0.360322 17.25 0.551088 17.25 0.75C17.25 0.948912 17.1743 1.13968 17.0395 1.28033C16.9047 1.42098 16.7219 1.5 16.5312 1.5H0.71875C0.528126 1.5 0.345309 1.42098 0.210517 1.28033C0.0757254 1.13968 0 0.948912 0 0.75Z" fill="black"/>
</svg>
