<svg width="19" height="18" viewBox="0 0 19 18" fill="none" xmlns="http://www.w3.org/2000/svg">
<path d="M12.2142 7.07143C12.9243 7.07143 13.4999 6.49579 13.4999 5.78571C13.4999 5.07563 12.9243 4.5 12.2142 4.5C11.5041 4.5 10.9285 5.07563 10.9285 5.78571C10.9285 6.49579 11.5041 7.07143 12.2142 7.07143Z" fill="#9A9A9A"/>
<path d="M12.2143 1.55605e-07C11.3108 -0.000207036 10.4199 0.211221 9.6128 0.617342C8.80575 1.02346 8.10505 1.61298 7.56685 2.33866C7.02866 3.06434 6.66793 3.906 6.51357 4.79619C6.35922 5.68638 6.41553 6.60035 6.678 7.46486L0 14.1429V18H3.85714L10.5351 11.322C11.3309 11.5636 12.1695 11.6307 12.9936 11.5189C13.8176 11.4071 14.608 11.1189 15.3106 10.674C16.0133 10.2291 16.6117 9.63802 17.0653 8.94092C17.5188 8.24383 17.8167 7.45715 17.9387 6.6345C18.0607 5.81185 18.004 4.97256 17.7723 4.17384C17.5406 3.37512 17.1394 2.63574 16.5961 2.00607C16.0528 1.37641 15.3802 0.871279 14.624 0.525093C13.8678 0.178907 13.0459 -0.000192712 12.2143 1.55605e-07ZM12.2143 10.2857C11.7717 10.2855 11.3315 10.2201 10.908 10.0916L10.1706 9.86786L9.62614 10.4124L7.58121 12.4573L6.69471 11.5714L5.78571 12.4804L6.67221 13.3669L5.65264 14.3865L4.76614 13.5L3.85714 14.409L4.74364 15.2955L3.32486 16.7143H1.28571V14.6751L7.587 8.37386L8.13214 7.82936L7.90843 7.092C7.63366 6.18621 7.65151 5.21684 7.95944 4.32178C8.26737 3.42672 8.8497 2.65155 9.6236 2.10653C10.3975 1.56152 11.3235 1.27441 12.27 1.28605C13.2165 1.2977 14.1352 1.6075 14.8955 2.17139C15.6557 2.73528 16.2188 3.52454 16.5046 4.42691C16.7904 5.32927 16.7844 6.29879 16.4874 7.19755C16.1905 8.0963 15.6177 8.87853 14.8505 9.43296C14.0833 9.98739 13.1608 10.2858 12.2143 10.2857Z" fill="#9A9A9A"/>
</svg>
