<svg width="10" height="10" viewBox="0 0 10 10" fill="none" xmlns="http://www.w3.org/2000/svg">
<path d="M9.67375 5.26393C9.88375 4.99454 10 4.66449 10 4.32108C10 3.77625 9.68625 3.26053 9.18125 2.97295C9.05124 2.89892 8.90322 2.85996 8.7525 2.8601H5.755L5.83 1.36877C5.8475 1.00838 5.71625 0.66619 5.46125 0.405299C5.33611 0.276708 5.18513 0.174397 5.01764 0.104687C4.85016 0.0349774 4.66973 -0.000649209 4.4875 8.95541e-06C3.8375 8.95541e-06 3.2625 0.424714 3.09 1.03265L2.01625 4.80646H2.0125V10H7.91625C8.03125 10 8.14375 9.97816 8.2475 9.93447C8.8425 9.68814 9.22625 9.12389 9.22625 8.49776C9.22625 8.34486 9.20375 8.1944 9.15875 8.04878C9.36875 7.7794 9.485 7.44934 9.485 7.10594C9.485 6.95304 9.4625 6.80258 9.4175 6.65696C9.6275 6.38758 9.74375 6.05752 9.74375 5.71412C9.74125 5.56122 9.71875 5.40954 9.67375 5.26393V5.26393ZM0 5.19476V9.6117C0 9.82648 0.17875 10 0.4 10H1.2125V4.80646H0.4C0.17875 4.80646 0 4.97998 0 5.19476Z" fill="#0E72AB"/>
</svg>
