<svg width="16" height="16" viewBox="0 0 16 16" fill="none" xmlns="http://www.w3.org/2000/svg">
<path d="M13.4978 0.502385L13.6468 0.353385C13.759 0.241302 13.8921 0.152405 14.0386 0.0917714C14.1851 0.0311376 14.3421 -4.63775e-05 14.5007 5.17695e-08C14.6592 4.64811e-05 14.8162 0.0313224 14.9627 0.0920421C15.1092 0.152762 15.2422 0.241736 15.3543 0.353885C15.4664 0.466034 15.5553 0.599161 15.6159 0.745665C15.6766 0.89217 15.7077 1.04918 15.7077 1.20774C15.7077 1.36629 15.6764 1.52329 15.6157 1.66976C15.5549 1.81623 15.466 1.9493 15.3538 2.06138L15.2048 2.20938C15.4597 2.49525 15.5956 2.86778 15.5846 3.25061C15.5736 3.63345 15.4167 3.99759 15.1458 4.26838L4.85382 14.5614C4.78948 14.6254 4.70893 14.6707 4.62082 14.6924L0.620816 15.6924C0.537108 15.7132 0.449432 15.7121 0.366309 15.689C0.283186 15.6659 0.207444 15.6218 0.146447 15.5608C0.0854489 15.4998 0.0412701 15.424 0.0182047 15.3409C-0.00486067 15.2578 -0.00602807 15.1701 0.014816 15.0864L1.01482 11.0864C1.0367 10.9986 1.08197 10.9184 1.14582 10.8544L10.7878 1.21238C10.6914 1.14451 10.5741 1.11291 10.4566 1.12316C10.3391 1.13341 10.229 1.18484 10.1458 1.26838L6.85382 4.56139C6.80733 4.60787 6.75214 4.64475 6.6914 4.66991C6.63066 4.69507 6.56556 4.70802 6.49982 4.70802C6.43407 4.70802 6.36897 4.69507 6.30823 4.66991C6.24749 4.64475 6.1923 4.60787 6.14582 4.56139C6.09933 4.5149 6.06245 4.45971 6.03729 4.39897C6.01213 4.33823 5.99918 4.27313 5.99918 4.20739C5.99918 4.14164 6.01213 4.07654 6.03729 4.0158C6.06245 3.95506 6.09933 3.89987 6.14582 3.85338L9.43982 0.561385C9.71079 0.2904 10.0752 0.133406 10.4583 0.12262C10.8414 0.111835 11.214 0.248076 11.4998 0.503385C11.7746 0.257824 12.1301 0.121997 12.4986 0.121812C12.8671 0.121628 13.2228 0.257099 13.4978 0.502385ZM12.8538 1.26838C12.7601 1.17465 12.6329 1.12199 12.5003 1.12199C12.3677 1.12199 12.2406 1.17465 12.1468 1.26838L1.94982 11.4634L1.18582 14.5204L4.24282 13.7564L14.4398 3.56138C14.4864 3.51494 14.5233 3.45976 14.5485 3.39902C14.5737 3.33827 14.5867 3.27315 14.5867 3.20738C14.5867 3.14162 14.5737 3.0765 14.5485 3.01575C14.5233 2.95501 14.4864 2.89983 14.4398 2.85338L12.8548 1.26838H12.8538Z" fill="#9A9A9A"/>
</svg>
