<svg width="21" height="17" viewBox="0 0 21 17" fill="none" xmlns="http://www.w3.org/2000/svg">
<path d="M15.3092 6.80108H20.6599C20.7246 6.8011 20.7879 6.81954 20.8424 6.85424C20.8969 6.88894 20.9405 6.93846 20.9679 6.997C20.9953 7.05555 21.0055 7.12069 20.9972 7.1848C20.9889 7.24891 20.9626 7.30934 20.9212 7.35902L18.2458 10.5706C18.2139 10.6089 18.1739 10.6397 18.1288 10.6608C18.0836 10.6819 18.0344 10.6929 17.9845 10.6929C17.9347 10.6929 17.8854 10.6819 17.8403 10.6608C17.7951 10.6397 17.7552 10.6089 17.7233 10.5706L15.0479 7.35902C15.0065 7.30934 14.9801 7.24891 14.9719 7.1848C14.9636 7.12069 14.9738 7.05555 15.0012 6.997C15.0286 6.93846 15.0721 6.88894 15.1267 6.85424C15.1812 6.81954 15.2445 6.8011 15.3092 6.80108ZM0.340079 9.52273H5.69084C5.75549 9.5227 5.81879 9.50426 5.87333 9.46956C5.92787 9.43486 5.9714 9.38534 5.99881 9.3268C6.02623 9.26826 6.0364 9.20312 6.02813 9.139C6.01986 9.07489 5.99349 9.01446 5.95212 8.96479L3.27674 5.75324C3.24481 5.71495 3.20486 5.68415 3.15971 5.66301C3.11456 5.64188 3.06531 5.63092 3.01546 5.63092C2.96561 5.63092 2.91636 5.64188 2.87121 5.66301C2.82606 5.68415 2.78611 5.71495 2.75418 5.75324L0.0788005 8.96479C0.0374283 9.01446 0.0110641 9.07489 0.00279504 9.139C-0.00547403 9.20312 0.00469434 9.26826 0.0321095 9.3268C0.0595247 9.38534 0.103052 9.43486 0.157594 9.46956C0.212136 9.50426 0.275435 9.5227 0.340079 9.52273Z" fill="#ABABAB"/>
<path fill-rule="evenodd" clip-rule="evenodd" d="M10.5 1.35782C8.388 1.35782 6.49917 2.31992 5.2513 3.8318C5.19558 3.90402 5.1259 3.9643 5.04641 4.00906C4.96693 4.05382 4.87925 4.08213 4.7886 4.09232C4.69795 4.10251 4.60618 4.09437 4.51874 4.06839C4.4313 4.0424 4.34998 3.99909 4.27961 3.94105C4.20924 3.883 4.15126 3.8114 4.10912 3.73049C4.06698 3.64959 4.04154 3.56104 4.03431 3.47011C4.02708 3.37917 4.03821 3.28771 4.06703 3.20117C4.09586 3.11462 4.14179 3.03475 4.2021 2.96632C5.19848 1.75998 6.52039 0.865216 8.01059 0.388443C9.5008 -0.088329 11.0966 -0.127045 12.6082 0.276901C14.1197 0.680847 15.4835 1.51045 16.5372 2.66705C17.5909 3.82365 18.2902 5.25856 18.552 6.80112H17.168C16.8539 5.26449 16.0187 3.8835 14.8037 2.89167C13.5887 1.89983 12.0684 1.35801 10.5 1.35782ZM3.83196 9.52277C4.08958 10.781 4.69792 11.9407 5.58671 12.8679C6.4755 13.795 7.60846 14.4518 8.85471 14.7623C10.101 15.0729 11.4096 15.0245 12.6295 14.6227C13.8495 14.221 14.9308 13.4824 15.7487 12.4921C15.8044 12.4199 15.8741 12.3596 15.9536 12.3148C16.0331 12.2701 16.1207 12.2418 16.2114 12.2316C16.302 12.2214 16.3938 12.2295 16.4813 12.2555C16.5687 12.2815 16.65 12.3248 16.7204 12.3828C16.7908 12.4409 16.8487 12.5125 16.8909 12.5934C16.933 12.6743 16.9585 12.7629 16.9657 12.8538C16.9729 12.9447 16.9618 13.0362 16.933 13.1227C16.9041 13.2093 16.8582 13.2891 16.7979 13.3576C15.8015 14.5639 14.4796 15.4587 12.9894 15.9354C11.4992 16.4122 9.90341 16.4509 8.39184 16.047C6.88027 15.643 5.51653 14.8134 4.46282 13.6568C3.40911 12.5002 2.70978 11.0653 2.448 9.52277H3.83196Z" fill="#ABABAB"/>
</svg>
