<svg width="12" height="10" viewBox="0 0 12 10" fill="none" xmlns="http://www.w3.org/2000/svg">
<path d="M11.7276 2.31641L10.4631 0.292969C10.3501 0.111328 10.1495 0 9.93515 0H2.06408C1.84977 0 1.6491 0.111328 1.5361 0.292969L0.271663 2.31641C-0.381012 3.36133 0.197628 4.81445 1.41725 4.98047C1.50493 4.99219 1.59455 4.99805 1.68417 4.99805C2.26086 4.99805 2.77131 4.74414 3.122 4.35156C3.47269 4.74414 3.98509 4.99805 4.55984 4.99805C5.13653 4.99805 5.64698 4.74414 5.99767 4.35156C6.34836 4.74414 6.86076 4.99805 7.43551 4.99805C8.0122 4.99805 8.52265 4.74414 8.87334 4.35156C9.22598 4.74414 9.73643 4.99805 10.3112 4.99805C10.4027 4.99805 10.4904 4.99219 10.5781 4.98047C11.8016 4.81641 12.3822 3.36328 11.7276 2.31641V2.31641ZM10.3151 5.625C10.1202 5.625 9.92736 5.5957 9.74033 5.55078V7.5H2.25891V5.55078C2.07188 5.59375 1.879 5.625 1.68417 5.625C1.56727 5.625 1.44843 5.61719 1.33348 5.60156C1.22437 5.58594 1.11722 5.56055 1.01396 5.53125V9.375C1.01396 9.7207 1.29256 10 1.63741 10H10.3657C10.7106 10 10.9892 9.7207 10.9892 9.375V5.53125C10.884 5.5625 10.7788 5.58789 10.6697 5.60156C10.5508 5.61719 10.4339 5.625 10.3151 5.625Z" fill="#1BC917"/>
</svg>
