<svg width="18" height="18" viewBox="0 0 18 18" fill="none" xmlns="http://www.w3.org/2000/svg">
<path d="M9 0.520355C8.01109 0.520355 7.04439 0.788815 6.22215 1.29178C5.3999 1.79476 4.75904 2.50965 4.3806 3.34606C4.00216 4.18246 3.90315 5.10283 4.09607 5.99075C4.289 6.87868 4.7652 7.69429 5.46447 8.33445C6.16373 8.97461 7.05464 9.41057 8.02455 9.58719C8.99445 9.76381 9.99979 9.67316 10.9134 9.32671C11.827 8.98026 12.6079 8.39356 13.1573 7.64081C13.7068 6.88806 14 6.00307 14 5.09775C14 3.88375 13.4732 2.71947 12.5355 1.86104C11.5979 1.00261 10.3261 0.520355 9 0.520355V0.520355ZM9 7.84418C8.40666 7.84418 7.82664 7.68311 7.33329 7.38133C6.83994 7.07954 6.45542 6.65061 6.22836 6.14876C6.0013 5.64692 5.94189 5.0947 6.05764 4.56195C6.1734 4.02919 6.45912 3.53982 6.87868 3.15573C7.29824 2.77163 7.83279 2.51006 8.41473 2.40408C8.99667 2.29811 9.59987 2.3525 10.1481 2.56037C10.6962 2.76824 11.1648 3.12026 11.4944 3.57191C11.8241 4.02356 12 4.55455 12 5.09775C12 5.82615 11.6839 6.52472 11.1213 7.03977C10.5587 7.55483 9.79565 7.84418 9 7.84418V7.84418ZM18 17.9144V16.999C18 15.2994 17.2625 13.6694 15.9497 12.4676C14.637 11.2658 12.8565 10.5906 11 10.5906H7C5.14348 10.5906 3.36301 11.2658 2.05025 12.4676C0.737498 13.6694 0 15.2994 0 16.999V17.9144H2V16.999C2 15.785 2.52678 14.6207 3.46447 13.7623C4.40215 12.9038 5.67392 12.4216 7 12.4216H11C12.3261 12.4216 13.5979 12.9038 14.5355 13.7623C15.4732 14.6207 16 15.785 16 16.999V17.9144H18Z" fill="black"/>
</svg>
